<svg width="255" height="210" viewBox="0 0 255 210" fill="none" xmlns="http://www.w3.org/2000/svg">
<g clip-path="url(#clip0_28_12)">
<path d="M85.0263 38.4822C94.0728 15.7527 92.6662 17.2266 105.181 17.2266C115.297 17.2266 115.297 17.2266 117.06 14.3555C119.517 10.3455 125.413 10.2211 128.486 14.1162C130.49 16.6428 131 16.7672 141.328 17.2266L152.08 17.7051C167.919 55.9863 167.919 55.9863 165.934 58.6852C162.022 64.035 149.286 65.8629 141.242 62.2357C134.016 58.9723 134.045 58.1109 142.234 37.975C146.213 28.2037 149.219 19.9637 148.92 19.6766C147.07 17.8391 130.432 19.2076 129.334 21.2939C126.55 26.548 121.655 27.0457 117.339 22.4902C114.15 19.1406 114.15 19.1406 105.422 19.1406C94.8242 19.1406 94.988 17.3414 103.639 38.5396C111.52 57.8525 111.539 58.4076 104.429 61.9678C101.327 63.5182 98.437 64.1211 94.0728 64.1211C89.9012 64.1211 86.8086 63.5182 84.1496 62.1783C77.0396 58.6086 77.0396 58.5512 85.0263 38.4822ZM107.011 54.3115C100.952 39.2 94.41 23.9545 94.1113 24.2512C93.8993 24.4617 90.9417 31.4672 87.5408 39.8316C84.1399 48.1865 81.3364 55.1346 81.3075 55.2686C81.2882 55.4025 87.1651 55.5078 94.381 55.5078C104.478 55.5078 107.378 55.2303 107.011 54.3115ZM164.123 54.9623C164.123 54.6656 161.242 47.4496 157.726 38.932L151.329 23.4473C141.165 47.9186 138.188 55.1346 138.159 55.2686C138.13 55.4025 143.968 55.5078 151.117 55.5078C158.275 55.5078 164.123 55.259 164.123 54.9623Z" fill="#423321" fill-opacity="0.976471"/>
<path d="M116.443 58.5129C117.763 52.0051 119.131 42.4156 119.468 37.2189C120.095 27.7539 120.095 27.7539 122.677 27.7539C125.258 27.7539 125.258 27.7539 126.366 39.4775C126.983 45.9279 128.467 55.7279 129.661 61.25L131.848 71.2988C118.033 71.6721 114.025 71.452 114.035 71.0596C114.035 70.6672 115.114 65.0207 116.443 58.5129Z" fill="#423321" fill-opacity="0.976471"/>
<path d="M83.9662 185.099C78.7927 176.783 76.124 176.524 76.6057 184.372C76.8562 188.468 77.3379 189.923 78.6193 190.363C82.0876 191.579 80.0933 192.363 73.5613 192.363C66.8367 192.363 65.0929 191.607 68.7443 190.258C71.7309 189.167 71.7116 164.112 68.7346 163.174C62.1834 161.107 76.4998 159.843 84.8237 161.757C92.1553 163.432 94.2459 170.246 88.9278 175.175C85.6618 178.209 86.9817 181.798 94.1399 189.291C95.7874 191.033 96.8182 192.641 96.4328 192.88C96.0378 193.119 93.928 192.851 91.7506 192.277C88.3209 191.368 87.2515 190.392 83.9662 185.099ZM85.1031 167.662C83.841 164.533 83.2918 164.131 80.3053 164.131C76.9333 164.131 76.9333 164.131 76.6925 170.591C76.4516 177.051 76.4516 177.051 79.3129 177.051C84.0337 177.051 86.9721 172.285 85.1031 167.662Z" fill="#423321" fill-opacity="0.976471"/>
<path d="M120.769 190.258C122.561 189.607 122.695 188.679 122.695 177.137C122.695 165.806 122.532 164.6 120.769 163.375C119.709 162.638 118.842 161.69 118.842 161.269C118.842 159.796 139.517 161.403 143.264 163.164C154.469 168.457 153.554 185.138 141.761 190.459C138.582 191.885 135.451 192.325 128.235 192.344C123.071 192.354 118.842 192.047 118.842 191.665C118.842 191.282 119.709 190.65 120.769 190.258ZM143.525 182.984C147.272 172.524 142.445 163.27 133.553 163.834C128.958 164.131 128.958 164.131 128.688 175.902C128.524 182.908 128.823 188.238 129.41 189.062C129.96 189.827 131.723 190.449 133.341 190.449C138.428 190.449 141.723 188.028 143.525 182.984Z" fill="#423321" fill-opacity="0.976471"/>
<path d="M208.97 177.376C209.004 172.854 210.836 168.529 214.067 165.344C217.298 162.158 221.665 160.37 226.217 160.37C230.769 160.37 235.137 162.158 238.368 165.344C241.599 168.529 243.431 172.854 243.465 177.376C243.431 181.898 241.599 186.223 238.368 189.409C235.137 192.594 230.769 194.382 226.217 194.382C221.665 194.382 217.298 192.594 214.067 189.409C210.836 186.223 209.004 181.898 208.97 177.376ZM226.677 162.89C219.702 162.306 215.945 169.522 217.457 180.537C217.929 183.916 218.883 185.753 221.446 188.194C223.488 190.146 225.791 191.409 227.304 191.409C239.597 191.409 238.999 163.923 226.677 162.89Z" fill="#423321" fill-opacity="0.976471"/>
<path d="M33.1748 172.093C33.1073 164.638 32.8954 163.719 31.1612 163.174C27.5484 162.035 30.2845 160.781 36.3637 160.781C43.0112 160.781 44.8032 161.566 41.7973 163.155C39.4562 164.408 38.8589 183.836 41.0748 186.707C44.4853 191.119 50.8631 191.215 54.2832 186.899C57.5107 182.822 57.1735 165.002 53.84 163.49C50.2754 161.882 51.8458 160.781 57.7226 160.781C63.137 160.781 64.3894 161.872 61.0368 163.652C59.3508 164.552 59.1099 165.672 59.0907 172.543C59.0521 183.396 57.8382 187.999 54.3121 190.583C52.6165 191.827 49.6492 192.823 47.0865 193.004C43.8783 193.234 41.7781 192.756 39.119 191.167C34.6584 188.506 33.2807 184.085 33.1748 172.093Z" fill="#423321" fill-opacity="0.976471"/>
<path d="M122.57 74.6676C143.486 74.6771 144.17 74.8398 143.717 79.5293C143.409 82.7832 143.409 82.7832 122.937 83.0225C102.464 83.2617 102.464 83.2617 101.857 80.4002C100.682 74.9164 101.635 74.6484 122.57 74.6676Z" fill="#423321" fill-opacity="0.976471"/>
<path d="M193.988 160.82C202.514 160.8 203.622 161.355 203.622 165.681C203.622 170.074 203.092 170.294 200.906 166.782C197.466 161.241 189.21 161.308 184.701 166.925C174.257 179.931 190.674 199.464 201.416 186.803C204.066 183.683 204.933 184.382 203.497 188.487C202.707 190.736 201.561 191.856 199.403 192.469C197.755 192.938 194.778 193.32 192.794 193.32C190.799 193.32 187.476 192.698 185.395 191.933C167.523 185.339 174.286 160.848 193.988 160.82Z" fill="#423321" fill-opacity="0.976471"/>
<path d="M13.8202 163.174C10.1784 162.025 12.9627 160.781 19.1864 160.781C25.8051 160.781 26.518 161.308 23.464 163.911C21.7202 165.394 21.5371 166.734 21.5275 178.238C21.5275 192.143 20.67 195.206 15.9493 198.306C14.5138 199.244 12.8086 200.01 12.1438 200.01C11.4116 200.02 11.8933 198.718 13.3481 196.727C16.7489 192.076 17.1343 164.217 13.8202 163.174Z" fill="#423321" fill-opacity="0.976471"/>
<path d="M101.491 163.174C97.878 162.035 100.614 160.781 106.693 160.781C113.505 160.781 115.123 161.566 111.886 163.289C108.485 165.097 108.456 189.301 111.857 190.545C113.052 190.985 114.025 191.579 114.025 191.856C114.025 192.134 110.778 192.363 106.799 192.363C99.8337 192.363 99.6411 192.306 101.491 190.688C104.449 188.104 104.439 164.102 101.491 163.174Z" fill="#423321" fill-opacity="0.976471"/>
<path d="M158.342 190.258C161.309 189.176 161.3 165.538 158.323 163.528C155.105 161.346 156.097 160.781 163.159 160.781C170.288 160.781 171.088 161.212 167.976 163.375C166.213 164.6 166.049 165.806 166.049 177.137C166.049 188.679 166.184 189.607 167.976 190.258C169.036 190.65 169.903 191.282 169.903 191.665C169.903 192.047 166.868 192.363 163.159 192.363C159.45 192.363 156.415 192.047 156.415 191.665C156.415 191.282 157.282 190.65 158.342 190.258Z" fill="#423321" fill-opacity="0.976471"/>
<path d="M160.192 129.132C160.22 126.094 161.454 123.19 163.627 121.051C165.799 118.912 168.734 117.713 171.793 117.713C174.851 117.713 177.786 118.912 179.959 121.051C182.131 123.19 183.366 126.094 183.394 129.132C183.366 132.17 182.131 135.075 179.959 137.213C177.786 139.352 174.851 140.552 171.793 140.552C168.734 140.552 165.799 139.352 163.627 137.213C161.454 135.075 160.22 132.17 160.192 129.132ZM177.977 129.072C177.986 117.53 167.832 115.846 166.338 127.148C166.021 129.57 166.493 131.723 167.89 134.221C169.624 137.312 170.317 137.771 172.89 137.523C176.589 137.178 177.977 134.872 177.977 129.072Z" fill="#423321" fill-opacity="0.976471"/>
<path d="M33.0249 129.084C33.0249 126.063 34.2331 123.166 36.3837 121.029C38.5342 118.893 41.4511 117.693 44.4924 117.693C47.5338 117.693 50.4506 118.893 52.6012 121.029C54.7518 123.166 55.96 126.063 55.96 129.084C55.96 132.106 54.7518 135.003 52.6012 137.139C50.4506 139.276 47.5338 140.476 44.4924 140.476C41.4511 140.476 38.5342 139.276 36.3837 137.139C34.2331 135.003 33.0249 132.106 33.0249 129.084ZM48.9367 121.756C44.7844 115.861 38.079 121.508 39.2447 129.939C39.5723 132.265 40.4875 134.992 41.2775 135.997C42.0772 136.992 43.7535 137.815 44.9963 137.815C50.0735 137.815 52.7133 127.106 48.9367 121.756Z" fill="#423321" fill-opacity="0.976471"/>
<path d="M220.685 129.161C220.685 126.166 221.882 123.293 224.014 121.175C226.146 119.057 229.038 117.867 232.053 117.867C235.069 117.867 237.96 119.057 240.092 121.175C242.224 123.293 243.422 126.166 243.422 129.161C243.422 132.156 242.224 135.029 240.092 137.147C237.96 139.265 235.069 140.454 232.053 140.454C229.038 140.454 226.146 139.265 224.014 137.147C221.882 135.029 220.685 132.156 220.685 129.161ZM235.889 121.533C230.311 115.408 223.538 126.175 227.864 134.291C228.471 135.439 229.338 136.702 229.791 137.095C230.234 137.487 231.708 137.813 233.066 137.813C238.115 137.813 240.128 126.194 235.889 121.533Z" fill="#423321" fill-opacity="0.976471"/>
<path d="M187.485 119.839C186.522 119.447 188.834 119.026 192.9 118.863C202.852 118.471 206.725 122.289 201.561 127.419C199.489 129.477 199.489 129.477 202.842 133.879C206.667 138.913 206.657 139.229 202.823 138.463C200.857 138.08 199.316 136.721 197.63 133.889C196.166 131.42 194.807 130.128 194.133 130.549C192.572 131.506 192.755 135.592 194.431 137.056C195.212 137.736 195.857 138.396 195.877 138.53C195.896 138.664 193.747 138.77 191.098 138.77C187.273 138.77 186.58 138.54 187.726 137.669C189.99 135.946 189.788 120.777 187.485 119.839ZM197.37 120.596C195.231 118.835 193.025 120.155 193.025 123.199C193.025 124.663 193.246 126.615 193.507 127.534C193.902 128.893 194.431 129.027 196.397 128.252C199.191 127.161 199.769 122.577 197.37 120.596Z" fill="#423321" fill-opacity="0.976471"/>
<path d="M63.349 124.414C61.9135 124.414 63.6188 136.281 65.2084 137.267C67.4628 138.683 67.3183 138.77 62.8191 138.77C58.9944 138.77 58.8884 138.693 60.4106 137.018C62.9347 134.243 62.665 121.964 60.0349 120.356C58.1947 119.227 58.2622 119.131 61.2391 118.825C64.0908 118.528 64.9772 119.131 70.1893 124.921C75.9698 131.343 75.9698 131.343 76.2684 126.204C76.4996 122.347 76.201 120.825 75.0642 120.117C72.935 118.758 73.0892 118.672 77.5979 118.672C80.9603 118.672 81.3938 118.873 80.1799 119.868C79.1683 120.701 78.5325 123.869 78.07 130.396L77.4149 139.727C67.0004 127.859 63.6958 124.414 63.349 124.414Z" fill="#423321" fill-opacity="0.976471"/>
<path d="M103.427 128.28C103.119 123.084 102.522 120.127 101.741 119.868C99.3329 119.074 100.643 118.672 105.595 118.701C109.497 118.72 110.268 118.949 108.967 119.705C106.713 121.017 106.578 131.601 108.784 134.731C110.701 137.458 115.47 137.621 116.877 135.008C118.495 132.003 118.158 120.634 116.434 119.973C114.006 119.055 114.796 118.672 119.083 118.701C122.33 118.72 122.831 118.93 121.491 119.705C120.143 120.481 119.805 122.002 119.805 127.276C119.805 132.75 119.43 134.3 117.638 136.367C116.414 137.774 114.112 139.047 112.339 139.296C110.335 139.573 108.254 139.114 106.559 138.013C104.092 136.425 103.871 135.736 103.427 128.28Z" fill="#423321" fill-opacity="0.976471"/>
<path d="M83.7642 133.152C83.928 132.96 85.1323 134.042 86.4425 135.544C88.4753 137.88 89.169 138.147 91.0765 137.324C94.41 135.889 93.5718 133.171 88.8221 130.061C81.8952 125.496 83.5908 117.878 91.5582 117.753C94.0535 117.705 96.6932 120.079 96.6547 122.328C96.6258 123.629 96.2597 123.514 94.7568 121.715C92.406 118.921 88.6295 119.198 88.1959 122.184C87.9647 123.782 88.9088 124.854 92.2423 126.797C98.7068 130.558 99.3523 135.439 93.7741 138.301C92.2519 139.085 90.3251 139.727 89.5062 139.727C88.6873 139.727 87.2999 139.401 86.4329 139.009C85.007 138.368 83.032 134.032 83.7642 133.152Z" fill="#423321" fill-opacity="0.976471"/>
<path d="M26.5274 118.222C29.8512 118.777 30.2076 119.122 30.2076 121.754C30.2076 124.672 30.2076 124.672 28.2134 122.146C24.9859 118.079 19.9473 118.576 17.5291 123.218C12.9336 132.032 22.3269 143.057 27.9918 135.506C29.8512 133.037 31.0747 134.52 29.5043 137.324C29.0323 138.157 26.8742 139.009 24.6198 139.267C21.9993 139.564 19.5137 139.191 17.5773 138.205C5.25516 131.946 12.4615 115.858 26.5274 118.222Z" fill="#423321" fill-opacity="0.976471"/>
<path d="M144.864 119.629C143.804 119.629 142.397 120.49 141.742 121.543C140.182 124.031 140.037 123.964 140.037 120.825C140.037 118.193 140.037 118.193 148.467 118.155C153.101 118.136 157.224 118.031 157.619 117.916C158.014 117.811 158.342 119.083 158.342 120.768C158.342 123.821 158.342 123.821 156.377 121.725C155.298 120.567 153.997 119.629 153.486 119.629H152.08C151.82 119.629 151.598 123.715 151.598 128.721C151.598 136.166 151.858 137.812 153.043 137.812C153.843 137.812 154.488 138.033 154.488 138.291C154.488 138.549 152.099 138.77 149.19 138.77C144.999 138.77 144.189 138.54 145.336 137.669C147.822 135.774 147.398 119.629 144.864 119.629Z" fill="#423321" fill-opacity="0.976471"/>
<path d="M126.549 128.548C126.549 122.299 126.231 120.404 125.104 119.973C122.503 118.978 123.572 118.672 129.199 118.787C132.243 118.844 133.977 119.093 133.052 119.332C130.201 120.069 130.567 136.827 133.447 137.573C134.931 137.966 136.155 137.401 137.686 135.63C140.172 132.759 141.27 133.161 139.999 136.473C139.17 138.636 138.659 138.77 131.386 138.77C125.374 138.77 123.977 138.53 125.104 137.669C126.183 136.846 126.549 134.549 126.549 128.548Z" fill="#423321" fill-opacity="0.976471"/>
<path d="M211.33 128.548C211.33 122.299 211.012 120.404 209.885 119.973C207.38 119.016 208.295 118.672 213.324 118.672C217.765 118.672 218.074 118.806 216.696 120.174C214.625 122.232 214.548 135.267 216.59 137.056C217.37 137.736 218.016 138.396 218.035 138.53C218.054 138.664 215.906 138.77 213.257 138.77C209.432 138.77 208.738 138.54 209.885 137.669C210.964 136.846 211.33 134.549 211.33 128.548Z" fill="#423321" fill-opacity="0.976471"/>
<path d="M109.179 152.666C112.965 149 113.032 148.981 115.017 150.761C117.021 152.56 117.021 152.56 111.703 155.24C108.774 156.704 106.144 157.91 105.865 157.91C105.585 157.91 105.354 157.566 105.354 157.145C105.354 156.723 107.079 154.714 109.179 152.666Z" fill="#423321" fill-opacity="0.976471"/>
<path d="M177.177 111.054C178.554 112.193 178.352 112.518 175.327 114.069C173.448 115.016 171.685 115.801 171.396 115.801C171.107 115.801 170.866 115.447 170.866 115.006C170.866 112.777 175.635 109.791 177.177 111.054Z" fill="#423321" fill-opacity="0.976471"/>
</g>
<defs>
<clipPath id="clip0_28_12">
<rect width="254.342" height="209.59" fill="white" transform="translate(0.341797)"/>
</clipPath>
</defs>
</svg>
